<?xml version="1.0" encoding="iso-8859-1"?>
<!-- Generator: Adobe Illustrator 24.1.2, SVG Export Plug-In . SVG Version: 6.00 Build 0)  -->
<svg version="1.1" xmlns="http://www.w3.org/2000/svg" xmlns:xlink="http://www.w3.org/1999/xlink" x="0px" y="0px"
	 viewBox="0 0 48 48" style="enable-background:new 0 0 48 48;" xml:space="preserve">
<g id="Layer_10" style="display:none;">
</g>
<g id="filled">
</g>
<g id="Layer_11">
</g>
<g id="outlined">
</g>
<g id="rounded">
	<path style="fill:#8A4581;" d="M40.435,13.522L28.926,2.566C24.993,2.609,15.681,2.88,11.747,2.922
		c-0.863,0.009-1.762,0.027-2.53,0.42c-1.367,0.7-1.914,2.354-2.173,3.868c-0.57,3.334,0.635,6.744,0.775,10.123
		c0.285,6.888,0.289,13.784,0.293,20.677c0.001,1.829,0.002,1.658,0.003,3.487c0.001,1.287,0.092,2.768,1.117,3.547
		c0.627,0.477,1.459,0.563,2.245,0.608c1.977,0.115,3.959,0.088,5.94,0.062c5.597-0.077,11.195-0.153,16.792-0.229
		c2.075-0.028,4.49-0.232,5.636-1.961c0.654-0.987,0.712-2.239,0.743-3.423C40.834,30.714,40.909,22.9,40.435,13.522z"/>
	<path style="fill:#283D5B;" d="M28.926,2.566c0.061,3.429,0.084,6.99,0.145,10.419c0.001,0.077,0.005,0.162,0.055,0.221
		c0.058,0.069,0.157,0.081,0.246,0.089c3.427,0.289,7.629,0.035,11.063,0.227c-1.911-2.286-4.748-3.948-6.951-5.954
		c-1.014-0.923-2.06-1.817-2.952-2.858C29.932,4.009,29.368,3.376,28.926,2.566z"/>
	<path d="M14.833,46.237c-1.126,0-2.26-0.02-3.385-0.086c-0.831-0.049-1.779-0.147-2.519-0.709
		c-1.313-0.996-1.313-2.914-1.314-3.944l-0.003-3.487c-0.005-6.822-0.01-13.803-0.293-20.656c-0.051-1.24-0.255-2.521-0.452-3.759
		C6.53,11.479,6.181,9.289,6.551,7.127C6.927,4.929,7.725,3.546,8.99,2.897c0.887-0.454,1.877-0.466,2.751-0.476
		c1.966-0.021,5.274-0.1,8.583-0.178c3.314-0.078,6.628-0.156,8.597-0.178c0.001,0,0.003,0,0.005,0c0.273,0,0.497,0.221,0.5,0.495
		c0.003,0.275-0.219,0.502-0.495,0.505c-1.965,0.021-5.273,0.1-8.582,0.178c-3.314,0.078-6.628,0.156-8.597,0.178
		c-0.763,0.009-1.629,0.019-2.306,0.366C8.48,4.282,7.855,5.43,7.537,7.295c-0.343,2-0.021,4.013,0.317,6.144
		c0.202,1.267,0.411,2.576,0.465,3.875c0.283,6.874,0.288,13.864,0.293,20.625l0.003,3.56c0.001,1.186,0.073,2.505,0.92,3.147
		c0.516,0.393,1.257,0.466,1.972,0.508c1.96,0.114,3.965,0.088,5.903,0.061l16.792-0.229c2.136-0.029,4.247-0.26,5.227-1.738
		c0.557-0.84,0.628-1.928,0.659-3.159c0.251-9.565,0.313-17.342-0.152-26.541c-0.015-0.276,0.198-0.511,0.474-0.524
		c0.297-0.041,0.512,0.199,0.524,0.474c0.468,9.231,0.405,17.029,0.154,26.617c-0.027,1.071-0.065,2.538-0.825,3.687
		c-1.236,1.865-3.637,2.152-6.047,2.186l-16.792,0.229C16.57,46.226,15.704,46.237,14.833,46.237z"/>
	<path d="M40.435,14.021c-0.009,0-0.019,0-0.028-0.001c-1.531-0.086-3.263-0.083-4.937-0.077c-2.081,0.004-4.234,0.01-6.14-0.15
		c-0.119-0.01-0.395-0.034-0.589-0.268c-0.166-0.198-0.169-0.434-0.17-0.534c-0.03-1.713-0.052-3.461-0.072-5.209
		c-0.021-1.747-0.042-3.493-0.073-5.207c-0.004-0.229,0.149-0.434,0.372-0.492c0.221-0.058,0.457,0.042,0.566,0.243
		C29.749,3.03,30.25,3.613,30.78,4.23l0.132,0.154c0.718,0.838,1.565,1.602,2.384,2.34l0.524,0.475
		c0.829,0.754,1.776,1.479,2.692,2.181c1.52,1.165,3.092,2.368,4.306,3.821c0.128,0.152,0.152,0.366,0.063,0.545
		C40.796,13.915,40.623,14.021,40.435,14.021z M36.553,12.941c0.91,0,1.822,0.006,2.698,0.031c-1.008-1.007-2.192-1.915-3.347-2.799
		c-0.933-0.714-1.897-1.453-2.758-2.235l-0.52-0.471c-0.843-0.76-1.715-1.545-2.475-2.433l-0.131-0.152
		c-0.194-0.227-0.385-0.448-0.569-0.675c0.018,1.181,0.032,2.371,0.046,3.562c0.021,1.689,0.041,3.379,0.07,5.038
		c1.854,0.145,3.904,0.14,5.898,0.136C35.827,12.942,36.189,12.941,36.553,12.941z"/>
	<path style="fill:#D6E5E5;" d="M16.677,20.075c-0.506-0.353-1.22-0.624-1.802-0.421c-0.612,0.213-0.964,0.947-0.809,1.576
		c0.155,0.629,0.754,1.101,1.398,1.175c0.726,0.083,1.516-0.375,1.681-1.087C17.245,20.888,17.033,20.323,16.677,20.075z"/>
	<path style="fill:#D6E5E5;" d="M20.251,19.345c0,0.5-0.172,2.055-0.131,2.625c0.007,0.103,0.016,0.213,0.075,0.298
		c0.116,0.167,0.358,0.168,0.56,0.152c4.094-0.319,8.215-0.276,12.302,0.127c0.046-0.672,0.092-1.843,0.139-2.515
		c0.012-0.181,0.013-0.39-0.125-0.507c-0.097-0.082-0.234-0.092-0.361-0.097C28.56,19.249,24.403,19.221,20.251,19.345z"/>
	<path style="fill:#D6E5E5;" d="M16.316,25.865c-0.502-0.109-0.954-0.276-1.409-0.038c-0.533,0.278-0.729,0.996-0.544,1.568
		c0.202,0.622,0.816,1.099,1.47,1.1s1.285-0.503,1.391-1.149S16.955,26.004,16.316,25.865z"/>
	<path style="fill:#D6E5E5;" d="M20.268,25.611c0.161,0.75,0.155,2.288,0.316,3.038c3.961-0.604,8.012,0.055,12.005-0.283
		c0.086-0.007,0.182-0.02,0.237-0.086c0.054-0.065,0.05-0.158,0.043-0.242c-0.04-0.513-0.08-1.525-0.121-2.038
		c-0.006-0.082-0.016-0.171-0.071-0.233c-0.062-0.068-0.163-0.082-0.255-0.091C28.382,25.28,24.319,25.339,20.268,25.611z"/>
	<path style="fill:#D6E5E5;" d="M16.204,31.569c-0.571-0.019-0.926,0.08-1.32,0.515c-0.393,0.435-0.47,1.124-0.26,1.682
		c0.063,0.168,0.154,0.332,0.298,0.431c0.136,0.094,0.302,0.119,0.464,0.14c0.732,0.095,1.657,0.028,1.952-0.681
		c0.202-0.485-0.005-1.044-0.243-1.511C16.974,31.907,16.462,31.577,16.204,31.569z"/>
	<path style="fill:#D6E5E5;" d="M20.052,31.242c-0.046,0.534-0.116,2.257-0.086,2.792c0.006,0.108,0.019,0.227,0.098,0.3
		c0.076,0.07,0.189,0.076,0.291,0.078c4.263,0.092,8.526,0.184,12.79,0.276c0.037-0.617,0.034-1.736-0.011-2.352
		c-0.013-0.185-0.037-0.386-0.165-0.521c-0.126-0.133-0.32-0.169-0.501-0.195c-1.68-0.245-3.384-0.266-5.081-0.288
		c-1.608-0.02-3.215-0.04-4.823-0.06C21.761,31.262,20.855,31.252,20.052,31.242z"/>
	<path d="M15.641,22.915c-0.078,0-0.156-0.004-0.234-0.013c-0.873-0.1-1.624-0.738-1.825-1.552c-0.223-0.9,0.284-1.873,1.129-2.168
		c0.652-0.226,1.493-0.047,2.253,0.482c0.521,0.362,0.814,1.139,0.67,1.767C17.434,22.288,16.568,22.915,15.641,22.915z
		 M15.309,20.084c-0.095,0-0.185,0.013-0.269,0.042c-0.353,0.123-0.585,0.593-0.488,0.984c0.1,0.403,0.516,0.747,0.969,0.798
		c0.511,0.063,1.037-0.27,1.138-0.702c0.054-0.232-0.078-0.589-0.267-0.721c-0.001,0-0.001,0-0.001,0
		C16.1,20.282,15.677,20.084,15.309,20.084z"/>
	<path d="M33.057,23.047c-0.017,0-0.033-0.001-0.049-0.002c-4.044-0.399-8.154-0.441-12.214-0.127c-0.2,0.017-0.72,0.056-1.01-0.366
		c-0.138-0.195-0.153-0.414-0.164-0.544c-0.026-0.38,0.024-1.061,0.074-1.719c0.029-0.394,0.057-0.751,0.057-0.944
		c0-0.271,0.215-0.492,0.485-0.5c4.14-0.122,8.346-0.096,12.495,0.084c0.148,0.006,0.429,0.017,0.662,0.216
		c0.345,0.291,0.313,0.733,0.301,0.923c-0.022,0.332-0.046,0.789-0.069,1.246c-0.023,0.465-0.047,0.93-0.069,1.268
		c-0.01,0.135-0.073,0.261-0.176,0.348C33.289,23.005,33.175,23.047,33.057,23.047z M26.185,21.71c2.141,0,4.28,0.097,6.404,0.29
		c0.013-0.231,0.025-0.484,0.038-0.736c0.023-0.464,0.047-0.928,0.069-1.266c0.002-0.027,0.003-0.05,0.004-0.069
		c-0.004,0-0.007,0-0.01,0c-3.972-0.172-7.991-0.203-11.961-0.098c-0.011,0.162-0.024,0.344-0.038,0.533
		c-0.042,0.559-0.094,1.254-0.074,1.563c0.023-0.001,0.057-0.002,0.1-0.005C22.532,21.78,24.358,21.71,26.185,21.71z M20.618,21.935
		h0.01H20.618z"/>
	<path d="M15.835,28.994c-0.001,0-0.002,0-0.003,0c-0.855,0-1.674-0.607-1.945-1.445c-0.272-0.842,0.073-1.793,0.788-2.166
		c0.554-0.287,1.078-0.165,1.539-0.055l0.208,0.049c0.871,0.188,1.452,1.108,1.295,2.051C17.572,28.307,16.745,28.994,15.835,28.994
		z M15.418,26.205c-0.104,0-0.194,0.02-0.28,0.064c-0.314,0.164-0.409,0.635-0.3,0.971c0.14,0.43,0.567,0.754,0.995,0.754h0.001
		c0.421,0,0.831-0.334,0.896-0.729c0.068-0.411-0.175-0.836-0.521-0.911c-0.001,0-0.001,0-0.001,0l-0.227-0.052
		C15.747,26.245,15.568,26.205,15.418,26.205z"/>
	<path d="M20.583,29.149c-0.231,0-0.438-0.162-0.488-0.396c-0.087-0.409-0.126-0.98-0.167-1.586
		c-0.037-0.546-0.076-1.111-0.149-1.451c-0.03-0.143,0.003-0.291,0.09-0.406c0.088-0.116,0.221-0.188,0.366-0.198
		c4.683-0.314,8.573-0.293,12.237,0.066c0.112,0.011,0.379,0.037,0.575,0.252c0.176,0.197,0.192,0.433,0.2,0.534
		c0.021,0.26,0.042,0.655,0.063,1.049c0.02,0.369,0.039,0.737,0.058,0.985c0.01,0.111,0.031,0.376-0.157,0.602
		c-0.195,0.233-0.476,0.256-0.581,0.264c-1.787,0.152-3.601,0.106-5.359,0.062c-2.183-0.057-4.44-0.112-6.61,0.218
		C20.634,29.147,20.608,29.149,20.583,29.149z M20.843,26.075c0.034,0.312,0.058,0.662,0.082,1.025
		c0.023,0.341,0.048,0.689,0.08,0.985c2.096-0.266,4.227-0.213,6.29-0.16c1.667,0.043,3.387,0.086,5.062-0.043
		c-0.016-0.248-0.03-0.531-0.046-0.816c-0.017-0.326-0.034-0.653-0.052-0.902C28.795,25.835,25.162,25.808,20.843,26.075z"/>
	<path d="M15.811,34.872c-0.189,0-0.391-0.013-0.602-0.039c-0.229-0.027-0.473-0.066-0.703-0.217
		c-0.217-0.141-0.388-0.365-0.507-0.666c-0.305-0.767-0.152-1.655,0.379-2.212c0.558-0.583,1.111-0.681,1.771-0.67l0,0
		c0.453,0.015,1.156,0.446,1.368,0.84c0.268,0.496,0.588,1.238,0.274,1.949C17.499,34.521,16.806,34.872,15.811,34.872z
		 M16.001,32.066c-0.431,0-0.637,0.088-0.9,0.363c-0.262,0.273-0.332,0.748-0.172,1.152c0.056,0.141,0.104,0.184,0.122,0.195
		c0.056,0.036,0.195,0.053,0.278,0.063c0.307,0.036,1.324,0.119,1.547-0.387c0.104-0.235,0.028-0.576-0.239-1.071
		c-0.066-0.097-0.396-0.297-0.523-0.314C16.074,32.066,16.036,32.066,16.001,32.066z"/>
	<path d="M33.146,35.188c-0.004,0-0.007,0-0.011,0l-12.79-0.276c-0.134-0.004-0.403-0.012-0.619-0.211
		c-0.236-0.215-0.252-0.513-0.259-0.64c-0.031-0.57,0.04-2.323,0.088-2.863c0.022-0.258,0.239-0.456,0.498-0.456
		c0.002,0,0.004,0,0.006,0l7.335,0.091c1.681,0.021,3.42,0.041,5.147,0.292c0.188,0.027,0.538,0.079,0.791,0.347
		c0.261,0.273,0.287,0.634,0.302,0.827c0.045,0.636,0.05,1.766,0.011,2.42C33.629,34.983,33.409,35.188,33.146,35.188z
		 M20.461,33.912l12.204,0.266c0.014-0.6,0.003-1.352-0.029-1.807c-0.009-0.119-0.021-0.194-0.035-0.22
		c-0.011-0.002-0.084-0.019-0.204-0.036c-1.662-0.242-3.367-0.263-5.016-0.282l-6.86-0.085
		C20.483,32.424,20.449,33.459,20.461,33.912z"/>
</g>
<g id="two_x5F_tone">
</g>
<g id="sharp">
</g>
<g id="win10">
</g>
<g id="ios_x5F_out">
</g>
<g id="ios_x5F_filled">
</g>
<g id="color">
</g>
</svg>